<svg version="1.2" xmlns="http://www.w3.org/2000/svg" viewBox="0 0 52 54" width="52" height="54"><style>.a{fill:#f7a845}</style><path fill-rule="evenodd" class="a" d="m52 16.6c0 0.4-0.1 0.8-0.4 1.1-4.7 5-9.2 10.3-13.3 15.8 0.9 2.4 1.7 4.3 2.5 6.3 1.2 3 2.5 6.1 4.4 11.3 0.2 0.6 0 1.3-0.6 1.6-0.5 0.4-1.3 0.4-1.8 0-7.6-5.7-12.1-8.4-17.2-11.7q-0.9-0.5-1.7-1.1c-2.5 1.1-10.6 4.5-15.2 6.9-0.5 0.3-1.2 0.2-1.7-0.3-0.5-0.4-0.6-1.1-0.4-1.6 2.5-5.1 4.5-10.4 5.9-15.8l-12-10.6c-0.5-0.4-0.6-1.1-0.4-1.7 0.3-0.5 1-0.9 1.6-0.8l16.3 1.9c0.8-5.7 2.2-11.4 4-16.9 0.2-0.6 0.7-1 1.4-1 0.6 0 1.2 0.3 1.4 0.9 2.7 5.7 5.1 11.6 7.3 17.5l18.2-3.1c0.6-0.1 1.3 0.2 1.6 0.7 0 0.2 0.1 0.4 0.1 0.6zm-17 16.7c0-0.3 0.1-0.7 0.3-1 3.5-4.6 7.3-9.1 11.2-13.5l-15.2 2.6c-0.7 0.1-1.5-0.3-1.7-1-1.8-4.9-3.8-9.9-6-14.8-1.3 4.6-2.2 9.3-2.8 14.1-0.1 0.3-0.3 0.7-0.6 0.9q-0.5 0.4-1.1 0.3l-13.1-1.5 9.2 8.1c0.4 0.4 0.6 0.9 0.4 1.4q-1.7 6.9-4.5 13.4c5.4-2.5 11.9-5.2 12.2-5.4 0.5-0.2 1.1-0.1 1.5 0.1q1.2 0.8 2.4 1.6c4.2 2.6 8 5 13.3 8.8-1-2.6-1.8-4.6-2.6-6.5-0.9-2.3-1.8-4.4-2.8-7.2q0-0.2-0.1-0.4z"/></svg>