<svg version="1.2" xmlns="http://www.w3.org/2000/svg" viewBox="0 0 28 60" width="28" height="60"><style>.a{fill:#f7a845}</style><path fill-rule="evenodd" class="a" d="m20.8 16.3c4.8 2.7 8.1 8.6 6.7 14.1-0.9 3.7-4.2 5.9-6 9.1-1.8 3.1-2.1 6.8-2.4 10.3 1.3 0.3 1.6 1.2 1.7 2.4 0 1.9-1 3-2.1 4.4-0.8 1.1-1.6 2.8-3.1 3.2-1.4 0.3-3.5 0-4.9-0.4q-0.8-0.3-1.3-1.1c-0.5-0.8-0.8-1.7-1.4-2.5-1-1.3-1.8-2.7-1.6-4.4 0.2-1.5 1.9-1.6 2.6-0.7q0-0.1 0.1-0.3 0.1-0.1 0.2-0.3c-0.4-1.3-0.8-2.5-1-4-0.4-1.8-0.8-3.7-1.5-5.5-1.5-3.3-4.7-5.5-6.1-8.9-1.9-5 0.1-10.8 4.2-14.1 4.4-3.6 11.1-4.2 15.9-1.3zm-10.3 38.5c0.2 0.4 0.3 0.9 0.4 1.3 0.2 1.1 0.3 1 1.2 1.1 1.1 0.2 2.7 0.5 3.7-0.2q0.5-0.5 1-1c-1.3 0.1-2.8-0.2-3.9-0.9-0.3-0.1-0.1-0.5 0.1-0.5 1.1-0.3 2-0.4 3.1-0.5 0.9 0 1.8-0.1 2.6-0.5 0.3-0.5 0.5-1.1 0-1.6-0.5-0.4-2.8-0.2-3.4-0.2q-1.7 0-3.3 0.1c-1.1 0.1-1.8 0.4-2.7-0.3q0 0-0.1-0.1 0 0.2 0 0.4c-0.2 1 1 2.1 1.3 2.9zm-7.2-22.8c1 1.8 2.5 3.1 3.7 4.7q1.5 2 2.3 4.3 0.8 2.2 1 4.4c0.2 1.6 0.1 2.8-0.1 4.2 1-0.4 2.3-0.2 3.3-0.3 1.1 0 2.3 0 3.5 0.1 0.4-5.2 1.3-10 4.8-14.2 2-2.4 3.6-4.6 3.7-7.8 0.1-2.8-1-5.4-2.9-7.4-4-4.3-10.9-5-15.7-1.7-4.2 3-6.3 9.1-3.6 13.7z"/><path class="a" d="m20.2 29.2c0.2-0.1 0.4 0.1 0.3 0.2-1.2 2.3-1.8 5-3.3 7.1-0.2 0.3-0.6 0.2-0.7-0.1-0.5-2.9 1.5-5.5 3.7-7.2z"/><path class="a" d="m15.4 28.4c0.4 2.5 0.6 5.5-0.5 7.9-0.2 0.4-0.7 0.4-0.9 0-1.3-2.5-0.5-5.7 1.1-8 0-0.1 0.3 0 0.3 0.1z"/><path class="a" d="m10.6 28.9c1 2 1.6 3.9 1.2 6.1-0.1 0.5-0.9 0.9-1.2 0.2-0.7-1.9-1-3.8-1.4-5.8-0.2-0.9 1-1.2 1.4-0.5z"/><path class="a" d="m19.6 13.2c0.8-3.4 3.3-6.6 5.2-9.5 0.5-0.7 1.9-0.1 1.5 0.8-1.5 3.2-3 7-5.6 9.5-0.6 0.5-1.2-0.2-1.1-0.8z"/><path class="a" d="m13.2 10c-0.1-1.5-0.4-3-0.2-4.6 0.2-1.5 0.5-3.1 0.9-4.6 0.3-1.4 2.2-0.8 2.3 0.5 0 1.5-0.1 3.1-0.3 4.6-0.2 1.5-0.8 2.8-1.2 4.2-0.3 0.7-1.4 0.7-1.5-0.1z"/><path class="a" d="m4 2c1.6 0.9 2.2 2.9 2.9 4.5 0.7 1.8 1.4 3.7 1.1 5.6-0.2 0.8-1.1 1.2-1.6 0.5-1.3-1.4-1.7-3.4-2.3-5.2-0.4-1.7-1.3-3.4-0.8-5.2 0-0.3 0.5-0.3 0.7-0.2z"/></svg>