<svg version="1.2" xmlns="http://www.w3.org/2000/svg" viewBox="0 0 44 53" width="44" height="53"><style>.a{fill:#49b3f7}</style><path class="a" d="m16.3 43c-0.4 0.7-0.8 1.3-1.2 1.6-0.5 0.4-0.8 0.4-1.1 0.3-0.5-0.2-1.2-1.6-1.6-3.2-0.5-1.7-1-3.5-1.4-5.4-0.4-1.7-0.7-3.5-1.3-5-0.4-0.9-1.3-0.8-1.3 0.4 0 3.5 1 7.5 1.9 10.9 0.3 1 0.6 1.9 1.1 2.9 0.5 0.9 1.2 1.9 2.1 2.2 1 0.3 1.9-0.3 2.5-1 0.5-0.8 0.9-1.7 1.3-2.6 0.4-1.2-0.5-2.1-1-1.1z"/><path class="a" d="m8.5 33c0.4 4.2 1 8.6 0.4 12.2-0.3 1.6-1 3.1-1.8 3.8-0.9 0.8-2 0.8-2.9 0.1-1-0.6-1.5-2.2-1.7-4.2-0.3-2-0.5-4.1-0.4-6 0.1-1.8 0.5-3.4 1.3-4.3 0.4-0.5 0.9-0.8 1.4-0.9 0.5-0.2 1-0.1 1.5 0.2 0.5 0.3 0.9 0.5 1.2 0.3 0.2-0.2 0.3-1-0.5-2-0.6-0.6-1.4-1.1-2.2-1.1-0.4 0-0.8 0.2-1.2 0.3-0.3 0.1-0.7 0.3-1.1 0.7-0.8 0.6-1.4 1.7-1.7 2.8-0.4 1.2-0.6 2.4-0.7 3.6-0.2 2.3 0 4.6 0.3 6.7 0.1 1.1 0.3 2.2 0.7 3.3 0.3 1.1 0.8 2.1 1.5 2.8 1.4 1.7 3.4 1.9 5.1 0.8 1.6-1.1 2.7-3.6 3-5.9 0.5-2.5 0.3-4.9 0-7-0.2-2.2-0.7-4.3-1-6.5-0.4-2.7-1.5-2.6-1.2 0.3z"/><path class="a" d="m27.3 2.9c-0.4 1.5-0.9 2.8-1.6 3.7-0.4 0.4-0.7 0.6-1.2 0.8-0.5 0.2-1 0.3-1.6 0.4-1 0.3-2.2 0.4-3.4 0.9-0.6 0.3-1.2 0.6-1.8 1.1-0.6 0.5-1.2 1.5-1.6 2.7-0.3 1.1-0.3 2.3-0.1 3.3 0.1 1.1 0.4 2.1 0.8 2.9 0.8 1.7 2 2.6 3.1 3.3 2 1.2 3.7 2.4 5 4.6 1.3 2.4 2.1 5.4 2.1 8.5 0 0.8-0.1 1.3-0.2 1.9-0.2 0.6-0.4 1.2-0.8 1.6-0.6 0.9-1.5 1.5-2.4 1.5-0.9 0.1-1.7-0.3-2.3-1-0.7-0.8-1-1.9-1.1-3.2-0.2-2.5 1-5.3 2.5-6.1 0.8-0.5 1.3-0.2 1.6-0.5 0.1-0.1 0.2-0.4-0.1-0.8-0.2-0.5-0.8-0.9-1.6-0.8q-0.9 0.2-1.7 1-0.8 0.7-1.3 1.7c-0.8 1.4-1.3 3.3-1.3 5.3 0 2 0.6 4 1.6 5.4 1 1.5 2.4 2.2 3.7 2.1 1.3 0 2.6-0.7 3.6-2 1.1-1.3 1.8-3.3 1.9-5.4 0.1-3.7-0.7-7.2-2-9.9-0.7-1.6-1.6-3-2.7-4.1-1-1-2.2-1.8-3.2-2.4-1.1-0.6-2-1.3-2.6-2.2-0.6-1-0.9-2.5-0.7-3.5q0.1-0.8 0.7-1.3 0.6-0.6 1.3-1c1-0.5 2-0.8 3.2-1.1q0.8-0.3 1.7-0.7 0.4-0.1 0.8-0.4c0.3-0.3 0.6-0.6 0.9-0.9 0.9-1.2 1.5-2.9 1.9-4.7 0.5-2.2 0.1-3.5-0.1-3.6-0.3 0-0.5 0.9-1 2.9z"/><path class="a" d="m39.5 26.3c0.9-0.1 1.8 0.2 2.2 0.9 0.2 0.3 0.3 0.7 0.4 1.1 0 0.4-0.1 1-0.2 1.5-0.3 1-0.9 1.8-1.6 2.3-0.6 0.4-1.4 0.4-1.9-0.1-1.1-0.8-1.6-3.4-2-6.2-0.4-2.8-0.8-5.5-0.9-8.3-0.2-2.9-0.2-5.8 0.1-8.6q0.1-1.1 0.3-2.1v-0.1-0.1q0 0 0.1 0c0 0 0-0.2 0.2 0.3 0.2 0.5 0.4 1.2 0.6 1.8 0.7 2.4 1 5 0.9 7.5-0.2 2.5-0.7 5-1.7 7-0.5 1.1-0.8 1.9-0.7 2.4 0.1 0.3 0.8 0.3 1.6-0.9 1.3-2 2.3-4.8 2.6-7.8 0.3-3.1 0-6.3-0.8-9.3-0.2-0.7-0.3-1.4-0.6-2.2-0.2-0.4-0.4-0.8-0.7-1.2-0.4-0.5-0.8-0.8-1.3-0.9-0.9-0.2-1.8 0.6-2.1 2 0 0.2-0.1 0.4-0.1 0.5v0.3l-0.1 0.5q-0.1 0.6-0.2 1.2c-0.4 3-0.4 5.9-0.3 8.7 0.2 3.1 0.5 6.2 1 9.2 0.2 1.5 0.4 3 0.8 4.6 0.4 1.5 1.1 3.3 2.2 4.2 1.2 1 2.6 1 3.6 0.2 1.1-0.8 2-2.1 2.4-3.8 0.2-0.8 0.4-1.7 0.3-2.7-0.1-0.9-0.4-1.9-0.9-2.5-0.9-1.2-2.1-1.4-3.2-1.3-1.4 0.3-1.9 1.5-1.7 1.8 0.1 0.4 0.6 0.3 1.7 0.1z"/></svg>