<svg version="1.2" xmlns="http://www.w3.org/2000/svg" viewBox="0 0 50 53" width="50" height="53"><style>.a{fill:#49b3f7}</style><path fill-rule="evenodd" class="a" d="m32.4 52c-0.4 0-0.8-0.2-1-0.5-4.2-5.1-8.6-10-13.2-14.7-2.3 0.7-4.1 1.3-6 1.9-2.8 0.9-5.7 1.9-10.6 3.2-0.5 0.2-1.1-0.1-1.4-0.7-0.3-0.6-0.2-1.3 0.2-1.8 5.7-7 8.6-11 11.9-15.8q0.6-0.8 1.2-1.6c-0.8-2.6-3.2-10.8-5-15.6-0.2-0.6-0.1-1.3 0.3-1.7 0.5-0.4 1.1-0.5 1.6-0.2 4.4 3 9 5.4 13.8 7.4l10.6-10.9c0.4-0.4 1-0.5 1.5-0.2 0.5 0.3 0.7 1 0.6 1.6l-3 15.9c5.1 1.4 10.1 3.2 15 5.6 0.5 0.2 0.8 0.8 0.8 1.4 0 0.7-0.4 1.2-0.9 1.4-5.4 2.1-10.9 3.9-16.5 5.5l1.3 18.2c0.1 0.6-0.2 1.2-0.8 1.5-0.1 0.1-0.3 0.1-0.4 0.1zm-13.9-18.3c0.3 0 0.6 0.1 0.9 0.4 3.9 3.9 7.7 8 11.3 12.3l-1.1-15.2c0-0.8 0.4-1.4 1-1.6q7-2 13.9-4.5-6.1-2.6-12.5-4.1c-0.3-0.1-0.6-0.4-0.8-0.7-0.2-0.3-0.2-0.8-0.2-1.1l2.5-12.8-8.1 8.3c-0.4 0.4-0.9 0.5-1.3 0.3-4.1-1.6-8-3.5-11.8-5.8 1.9 5.6 3.8 12.3 3.9 12.6 0.1 0.5 0.1 1-0.2 1.5q-0.8 1.1-1.6 2.2c-2.7 3.9-5.2 7.4-9.1 12.3 2.5-0.7 4.3-1.4 6.2-2 2.1-0.7 4-1.3 6.7-2.1q0.2 0 0.3 0z"/></svg>