<svg version="1.2" xmlns="http://www.w3.org/2000/svg" viewBox="0 0 233 141" width="233" height="141"><style>.a{fill:none;stroke:#eae2e2}.b{fill:#49b3f7}</style><path class="a" d="m0.5 91.8v-105.2l115-39.1 117 39.1v105.2l-117 48.7z"/><path class="b" d="m130.8 87.9c-4.1 3.4-10.1 5.8-13.4 9.9-0.2 0.3 0.1 0.6 0.4 0.5 4.9-2.5 10.2-5.5 13.5-9.8 0.3-0.3-0.2-0.8-0.5-0.6z"/><path class="b" d="m114.4 101.7c1 1.2 2.9-0.3 1.9-1.5-1.1-1.3-3 0.2-1.9 1.5z"/><path class="b" d="m59.6 38.7c0.2 1.7-0.6 3.4-1.5 5-1 1.5-2.2 3-3.6 4.2-1.3 1-2.8 1.7-4.4 1.7-1.5-0.1-2.9-1-3.5-2.4-0.4-0.7-0.5-1.5-0.4-2.3 0-0.9 0.2-1.8 0.5-2.6 0.6-1.8 1.5-3.4 2.8-4.7 1.1-1.3 2.6-2.2 4.3-2.6 1.7-0.4 3.5-0.2 5.1 0.6 0.9 0.4 1.5 0.7 1.8 0.6 0.3-0.1 0.3-0.7-0.9-1.6-1.7-1.3-4.2-1.9-6.4-1.5-2.2 0.4-4.2 1.5-5.6 3-1.5 1.5-2.4 3.3-3.1 5.1q-0.5 1.4-0.6 2.8c-0.1 1-0.1 2.1 0.2 3 0.3 1.2 0.9 2.2 1.9 3 0.9 0.8 2.1 1.4 3.3 1.5 1.1 0.1 2.4 0 3.4-0.4 1.1-0.4 2.1-1 2.9-1.7 1.7-1.3 2.8-3 3.8-4.8 0.9-1.7 1.6-3.7 1.4-5.9-0.3-1.4-1.1-1.9-1.4-1.8-0.3 0.1-0.2 0.7 0 1.8z"/><path class="b" d="m62.1 55.6c0.4-0.6 1-1.1 1.5-1.7q0.7-0.8 1.3-1.7 0.8-1 1.4-2c0.4-0.6 0.9-1.1 1-1.9 0.1-0.4-0.6-1-1.1-0.8-1.3 0.7-2.1 2.1-2.9 3.3-0.5 0.6-1 1.3-1.4 2-0.4 0.7-0.6 1.4-0.9 2.2-0.3 0.7 0.9 0.7 1.1 0.6z"/><path class="b" d="m74.5 48.5c-1-0.4-1.9-0.9-2.9-1.3-0.9-0.3-1.7-0.7-2.5-1.1-0.9-0.5-1.8-1-2.8-1.5-0.9-0.4-1.8-0.9-2.9-1-0.6 0-0.9 0.9-0.4 1.2 1.3 1.1 3.1 2.1 4.9 3 1 0.5 2.1 0.9 3.1 1.3 1.1 0.3 2.1 0.4 3.2 0.6 0.6 0.1 1-1 0.3-1.2z"/><path class="b" d="m74.9 61.3c0.9-1.7 2-3.2 3-4.8 0.4-0.7 0.6-1.1 1.1-1.8 0.2-0.4 0.5-0.8 0.7-1.1 0.1-0.3 0.1-0.4 0.3-0.6 0-0.1 0.1-0.2 0.1-0.3 0-0.1 0-0.1 0-0.2 0.1-0.5-0.1-0.7-0.2-0.8 0-0.1-0.4-0.5-0.5-0.5-0.1 0-0.1-0.1-0.3-0.1-0.2-0.1-0.7-0.1-1.2 0.1q-2.7 1.7-5.5 3.4c-1.4 1-3 1.9-4.3 2.9-0.7 0.6-0.5 1.5 0.6 1.2 1.5-0.5 3.1-1.3 4.6-2.1q1.1-0.7 2.2-1.4c0.2-0.1 0.3-0.1 0.6-0.3 0.1-0.1 0 0 0 0q0-0.1 0.1-0.1 0 0 0-0.1c0.1 0 0.1-0.1 0.2 0 0 0 0 0 0 0q0 0.1-0.1 0.2c0 0 0 0 0 0.1 0 0 0 0-0.1 0.1 0 0.1-0.1 0.2-0.1 0.3-0.9 1.8-1.6 3.5-2.3 5.3-0.5 1.1 0.6 1.6 1.1 0.6z"/><path class="b" d="m84.7 67.2c1-1 2-1.8 3-2.7 0.3-0.2 0.4-0.3 0.7-0.6 0.5-0.4 0.7-0.5 1.1-0.9 0.3-0.2 0.4-0.4 0.7-0.6 0.2-0.1 0.3-0.2 0.4-0.3 0.1-0.2 0.1-0.2 0.2-0.3 0.3-0.5 0.2-0.7 0.3-1-0.1-0.2-0.2-0.4-0.3-0.7-0.2-0.2-0.3-0.3-0.4-0.4-0.3-0.1-0.6-0.4-1.3-0.3q-3.5 0.6-6.8 1.2c-0.9 0.2-1.3 0.3-2.1 0.5-0.2 0-0.1 0-0.2 0q0 0 0 0 0 0.1 0 0.1c0 0-0.2 0-0.2 0q0 0 0-0.1 0.1-0.1 0.1-0.1c0.2-0.2 0.4-0.3 0.6-0.5q0.7-0.7 1.4-1.3c0.9-0.8 1.8-1.7 2.6-2.5 0.9-1 0.3-1.9-1-1.1q-1.4 1-2.9 2.1-0.7 0.6-1.5 1.2-1.1 1-2.2 2c-0.3 0.2-0.4 0.3-0.7 0.6-0.3 0.2-0.3 0.4-0.4 0.6-0.1 0.3-0.1 0.5 0 0.6 0 0.1 0 0.3 0.1 0.5 0.1 0.1 0.3 0.3 0.3 0.3 0.2 0.1 0.3 0.3 0.6 0.3 0.2 0.1 0.4 0.1 0.7 0.1 0.3-0.1 0.6-0.2 0.9-0.2q0.9-0.3 1.8-0.5 1-0.2 2-0.4c1.3-0.3 1.9-0.4 3.1-0.6 0.7-0.1 1-0.2 1.6-0.3 0.1 0 0.2-0.1 0.4-0.1q0 0 0 0 0.1 0 0.1 0c0.1 0 0.3-0.2 0.4 0 0 0.1-0.1 0.1-0.2 0.3q0 0-0.1 0.1c-0.1 0.1-0.2 0.2-0.3 0.3-0.3 0.3-0.4 0.5-0.7 0.8q-1.3 1.4-2.7 2.9c-0.6 0.7-0.6 1.4-0.3 1.5 0.1 0 0.3 0.1 0.5 0 0.2-0.1 0.4-0.2 0.7-0.5z"/><path class="b" d="m92.4 74c1.9-1.2 3.8-2.3 5.7-3.5 0.5-0.4 0.8-0.6 1.3-0.9 0.3-0.2 0.4-0.3 0.7-0.5 0.1-0.1 0.2-0.2 0.3-0.3 0.1-0.1 0.1-0.1 0.3-0.2 0-0.1 0-0.1 0.1-0.1q0-0.1 0-0.1 0.1-0.1 0.1-0.2 0.1-0.2 0.1-0.4c0-0.1-0.1-0.4-0.3-0.7-0.2-0.2-0.3-0.3-0.5-0.4-0.4-0.2-0.4-0.1-0.6-0.2-0.3 0.1-0.4 0.1-0.5 0.1-0.1 0.1-0.2 0.1-0.3 0.1-0.1 0.1-0.2 0.1-0.4 0.2-0.3 0.1-0.4 0.2-0.7 0.3q-0.7 0.3-1.4 0.6c-0.5 0.1-1 0.2-1.4 0.2-0.4 0-0.9-0.1-1.4-0.2q-0.6-0.3-1.1-0.7c-0.3-0.2-0.5-0.7-0.5-0.7-0.1-0.1 0.1-0.4 0.4-0.7 0.5-0.4 0.7-0.6 1.2-1q1.2-0.9 2.2-2c0.7-0.8 0.2-1.8-0.9-1.2q-1.3 0.7-2.6 1.6c-0.4 0.3-0.8 0.6-1.3 1q-0.3 0.3-0.7 0.7c-0.2 0.4-0.4 0.8-0.4 1.3-0.1 0.5 0.1 1 0.3 1.4q0.3 0.5 0.7 0.9c0.6 0.6 1.2 1 1.9 1.3q1 0.3 1.9 0.4c0.7 0.1 1.4 0 2-0.2 1.2-0.3 2.3-0.9 3.3-1.2q0 0 0.1-0.1 0 0 0 0c0 0 0 0.1 0 0-0.2-0.4-0.2-0.6-0.2-0.8-0.1-0.2 0.1 0-0.2-0.2 0 0-0.3-0.2-0.5-0.3-0.2-0.3-0.1-0.2-0.1-0.2 0 0-0.1 0-0.1 0 0 0.1 0 0.1-0.1 0.2-0.2 0.2-0.4 0.3-0.6 0.5-0.5 0.4-0.8 0.6-1.3 1-1.8 1.4-3.5 2.7-5.3 4.1-1.1 0.9-0.5 1.9 0.8 1.1z"/><path class="b" d="m102 82.4c0.8-0.5 1.6-0.9 2.3-1.4q1-0.7 2-1.5c0.7-0.6 1.3-1.2 1.9-1.8 0.6-0.6 1.3-1.1 1.6-1.9 0.2-0.4-0.4-1.2-1-1.1-1.5 0.6-2.7 1.9-3.9 3-0.6 0.6-1.3 1.1-1.9 1.7-0.6 0.6-1.1 1.3-1.8 2-0.4 0.4 0.3 1.3 0.8 1z"/><path class="b" d="m107.4 79.8c-0.6-0.6-1-1.3-1.6-1.9q-0.8-0.8-1.6-1.6-0.9-0.8-1.9-1.5c-0.6-0.4-1.2-1-1.9-1.2-0.4-0.1-1.1 0.5-0.9 0.9 0.7 1.3 2.1 2.3 3.1 3.2q0.9 0.8 1.9 1.6c0.6 0.5 1.3 0.8 2 1.3 0.4 0.3 1.2-0.4 0.9-0.8z"/><path class="b" d="m97 78.4c0.8-0.6 1.6-0.9 2.4-1.5q1.1-0.8 2.1-1.6c0.8-0.6 1.5-1.2 2.2-1.9 0.6-0.6 1.3-1.1 1.7-1.9 0.2-0.4-0.4-1.2-0.9-1.1-1.6 0.6-3 2-4.2 3.1q-1.1 0.9-2.2 1.8c-0.7 0.6-1.2 1.4-1.9 2.1-0.4 0.4 0.3 1.3 0.8 1z"/><path class="b" d="m116.7 87c0.3 1.1 0 2.2-0.6 2.9-0.6 0.8-1.6 1.4-2.7 1.7-0.9 0.3-2 0.4-2.9 0.1-0.9-0.3-1.8-1-2.3-1.8-0.5-0.9-0.7-1.8-0.3-2.8 0.4-0.9 1.1-1.8 2-2.5 0.8-0.6 1.8-1 2.8-1.1 1-0.1 2.1 0.2 3.2 0.5 1.3 0.5 1.9-0.2 0.6-1.1-1.1-0.7-2.5-1.3-3.9-1.3-1.5 0-2.9 0.4-4 1.2-1.2 0.8-2.1 2-2.6 3.2-0.3 0.7-0.5 1.4-0.4 2.2 0 0.8 0.2 1.5 0.5 2.1 0.7 1.5 1.9 2.6 3.5 3.2 1.5 0.6 3.1 0.5 4.5 0.1 1.4-0.5 2.5-1.3 3.4-2.5 0.8-1.2 0.9-2.8 0.4-4.3-0.3-0.9-0.9-1.2-1.1-1.1q-0.4 0.2-0.1 1.3z"/></svg>